<mxfile host="app.diagrams.net" modified="2023-12-04T17:48:32.587Z" agent="Mozilla/5.0 (Windows NT 10.0; Win64; x64) AppleWebKit/537.36 (KHTML, like Gecko) Chrome/119.0.0.0 Safari/537.36 Edg/119.0.0.0" etag="zL2wPB_jL_RUYTmwDrBq" version="22.1.5" type="device">
  <diagram id="C5RBs43oDa-KdzZeNtuy" name="Page-1">
    <mxGraphModel dx="1489" dy="847" grid="1" gridSize="10" guides="1" tooltips="1" connect="1" arrows="1" fold="1" page="1" pageScale="1" pageWidth="827" pageHeight="1169" math="0" shadow="0">
      <root>
        <mxCell id="WIyWlLk6GJQsqaUBKTNV-0" />
        <mxCell id="WIyWlLk6GJQsqaUBKTNV-1" parent="WIyWlLk6GJQsqaUBKTNV-0" />
        <mxCell id="ZI-vQJcTx0TfdvtGSrB0-10" style="edgeStyle=orthogonalEdgeStyle;rounded=0;orthogonalLoop=1;jettySize=auto;html=1;entryX=0.5;entryY=0;entryDx=0;entryDy=0;" parent="WIyWlLk6GJQsqaUBKTNV-1" source="WIyWlLk6GJQsqaUBKTNV-3" target="ZI-vQJcTx0TfdvtGSrB0-3" edge="1">
          <mxGeometry relative="1" as="geometry" />
        </mxCell>
        <mxCell id="WIyWlLk6GJQsqaUBKTNV-3" value="OPERACION = 0" style="rounded=1;whiteSpace=wrap;html=1;fontSize=12;glass=0;strokeWidth=1;shadow=0;" parent="WIyWlLk6GJQsqaUBKTNV-1" vertex="1">
          <mxGeometry x="300" y="20" width="120" height="40" as="geometry" />
        </mxCell>
        <mxCell id="ZI-vQJcTx0TfdvtGSrB0-9" style="edgeStyle=orthogonalEdgeStyle;rounded=0;orthogonalLoop=1;jettySize=auto;html=1;entryX=0.5;entryY=0;entryDx=0;entryDy=0;" parent="WIyWlLk6GJQsqaUBKTNV-1" source="WIyWlLk6GJQsqaUBKTNV-6" target="ZI-vQJcTx0TfdvtGSrB0-2" edge="1">
          <mxGeometry relative="1" as="geometry" />
        </mxCell>
        <mxCell id="WIyWlLk6GJQsqaUBKTNV-6" value="Es un número?" style="rhombus;whiteSpace=wrap;html=1;shadow=0;fontFamily=Helvetica;fontSize=12;align=center;strokeWidth=1;spacing=6;spacingTop=-4;" parent="WIyWlLk6GJQsqaUBKTNV-1" vertex="1">
          <mxGeometry x="295" y="230" width="130" height="100" as="geometry" />
        </mxCell>
        <mxCell id="ZI-vQJcTx0TfdvtGSrB0-14" style="edgeStyle=orthogonalEdgeStyle;rounded=0;orthogonalLoop=1;jettySize=auto;html=1;entryX=0;entryY=0.5;entryDx=0;entryDy=0;" parent="WIyWlLk6GJQsqaUBKTNV-1" source="ZI-vQJcTx0TfdvtGSrB0-2" target="ZI-vQJcTx0TfdvtGSrB0-3" edge="1">
          <mxGeometry relative="1" as="geometry">
            <Array as="points">
              <mxPoint x="190" y="400" />
              <mxPoint x="190" y="138" />
            </Array>
          </mxGeometry>
        </mxCell>
        <mxCell id="ZI-vQJcTx0TfdvtGSrB0-2" value="Leo un valor y lo concateno en la variable A" style="rounded=1;whiteSpace=wrap;html=1;fontSize=12;glass=0;strokeWidth=1;shadow=0;" parent="WIyWlLk6GJQsqaUBKTNV-1" vertex="1">
          <mxGeometry x="300" y="380" width="120" height="40" as="geometry" />
        </mxCell>
        <mxCell id="ZI-vQJcTx0TfdvtGSrB0-4" style="edgeStyle=orthogonalEdgeStyle;rounded=0;orthogonalLoop=1;jettySize=auto;html=1;entryX=1;entryY=0.5;entryDx=0;entryDy=0;" parent="WIyWlLk6GJQsqaUBKTNV-1" source="ZI-vQJcTx0TfdvtGSrB0-3" target="WIyWlLk6GJQsqaUBKTNV-3" edge="1">
          <mxGeometry relative="1" as="geometry">
            <Array as="points">
              <mxPoint x="450" y="138" />
              <mxPoint x="450" y="40" />
            </Array>
          </mxGeometry>
        </mxCell>
        <mxCell id="ZI-vQJcTx0TfdvtGSrB0-8" style="edgeStyle=orthogonalEdgeStyle;rounded=0;orthogonalLoop=1;jettySize=auto;html=1;entryX=0.5;entryY=0;entryDx=0;entryDy=0;" parent="WIyWlLk6GJQsqaUBKTNV-1" source="ZI-vQJcTx0TfdvtGSrB0-3" target="WIyWlLk6GJQsqaUBKTNV-6" edge="1">
          <mxGeometry relative="1" as="geometry" />
        </mxCell>
        <mxCell id="ZI-vQJcTx0TfdvtGSrB0-12" style="edgeStyle=orthogonalEdgeStyle;rounded=0;orthogonalLoop=1;jettySize=auto;html=1;entryX=0.5;entryY=0;entryDx=0;entryDy=0;" parent="WIyWlLk6GJQsqaUBKTNV-1" source="ZI-vQJcTx0TfdvtGSrB0-3" target="ZI-vQJcTx0TfdvtGSrB0-7" edge="1">
          <mxGeometry relative="1" as="geometry">
            <Array as="points">
              <mxPoint x="360" y="190" />
              <mxPoint x="565" y="190" />
            </Array>
          </mxGeometry>
        </mxCell>
        <mxCell id="ZI-vQJcTx0TfdvtGSrB0-3" value="Se pulsa algún botón?" style="rhombus;whiteSpace=wrap;html=1;shadow=0;fontFamily=Helvetica;fontSize=12;align=center;strokeWidth=1;spacing=6;spacingTop=-4;" parent="WIyWlLk6GJQsqaUBKTNV-1" vertex="1">
          <mxGeometry x="310" y="90" width="100" height="95" as="geometry" />
        </mxCell>
        <mxCell id="ZI-vQJcTx0TfdvtGSrB0-5" value="No" style="text;html=1;strokeColor=none;fillColor=none;align=center;verticalAlign=middle;whiteSpace=wrap;rounded=0;" parent="WIyWlLk6GJQsqaUBKTNV-1" vertex="1">
          <mxGeometry x="470" y="90" width="60" height="30" as="geometry" />
        </mxCell>
        <mxCell id="ZI-vQJcTx0TfdvtGSrB0-6" value="Si" style="text;html=1;strokeColor=none;fillColor=none;align=center;verticalAlign=middle;whiteSpace=wrap;rounded=0;" parent="WIyWlLk6GJQsqaUBKTNV-1" vertex="1">
          <mxGeometry x="300" y="185" width="60" height="30" as="geometry" />
        </mxCell>
        <mxCell id="ZI-vQJcTx0TfdvtGSrB0-16" style="edgeStyle=none;curved=1;rounded=0;orthogonalLoop=1;jettySize=auto;html=1;entryX=0.5;entryY=0;entryDx=0;entryDy=0;fontSize=12;startSize=8;endSize=8;" parent="WIyWlLk6GJQsqaUBKTNV-1" source="ZI-vQJcTx0TfdvtGSrB0-7" target="ZI-vQJcTx0TfdvtGSrB0-15" edge="1">
          <mxGeometry relative="1" as="geometry" />
        </mxCell>
        <mxCell id="ZI-vQJcTx0TfdvtGSrB0-7" value="Se pulsa boton de operación?" style="rhombus;whiteSpace=wrap;html=1;shadow=0;fontFamily=Helvetica;fontSize=12;align=center;strokeWidth=1;spacing=6;spacingTop=-4;" parent="WIyWlLk6GJQsqaUBKTNV-1" vertex="1">
          <mxGeometry x="500" y="230" width="130" height="110" as="geometry" />
        </mxCell>
        <mxCell id="ZI-vQJcTx0TfdvtGSrB0-15" value="Lo que tengo almacenado en mi variable A pasa a B" style="rounded=1;whiteSpace=wrap;html=1;fontSize=12;glass=0;strokeWidth=1;shadow=0;" parent="WIyWlLk6GJQsqaUBKTNV-1" vertex="1">
          <mxGeometry x="505" y="380" width="120" height="40" as="geometry" />
        </mxCell>
        <mxCell id="ZI-vQJcTx0TfdvtGSrB0-28" value="&lt;span style=&quot;font-size: 14px;&quot;&gt;&lt;b style=&quot;font-size: 25px;&quot;&gt;-&lt;/b&gt;&lt;/span&gt;" style="edgeStyle=none;curved=1;rounded=0;orthogonalLoop=1;jettySize=auto;html=1;fontSize=12;startSize=8;endSize=8;verticalAlign=bottom;horizontal=1;labelPosition=center;verticalLabelPosition=top;align=center;" parent="WIyWlLk6GJQsqaUBKTNV-1" source="ZI-vQJcTx0TfdvtGSrB0-23" target="ZI-vQJcTx0TfdvtGSrB0-24" edge="1">
          <mxGeometry x="-0.0018" relative="1" as="geometry">
            <Array as="points">
              <mxPoint x="280" y="1010" />
            </Array>
            <mxPoint as="offset" />
          </mxGeometry>
        </mxCell>
        <mxCell id="ZI-vQJcTx0TfdvtGSrB0-23" value="res=5" style="rounded=1;whiteSpace=wrap;html=1;fontSize=12;glass=0;strokeWidth=1;shadow=0;" parent="WIyWlLk6GJQsqaUBKTNV-1" vertex="1">
          <mxGeometry x="110" y="990" width="120" height="40" as="geometry" />
        </mxCell>
        <mxCell id="ZI-vQJcTx0TfdvtGSrB0-29" value="&lt;b&gt;&lt;font style=&quot;font-size: 30px;&quot;&gt;=&lt;/font&gt;&lt;/b&gt;" style="edgeStyle=none;curved=1;rounded=0;orthogonalLoop=1;jettySize=auto;html=1;fontSize=12;startSize=8;endSize=8;verticalAlign=bottom;" parent="WIyWlLk6GJQsqaUBKTNV-1" source="ZI-vQJcTx0TfdvtGSrB0-24" target="ZI-vQJcTx0TfdvtGSrB0-25" edge="1">
          <mxGeometry x="-0.0345" relative="1" as="geometry">
            <mxPoint as="offset" />
          </mxGeometry>
        </mxCell>
        <mxCell id="ZI-vQJcTx0TfdvtGSrB0-24" value="A=10" style="rounded=1;whiteSpace=wrap;html=1;fontSize=12;glass=0;strokeWidth=1;shadow=0;" parent="WIyWlLk6GJQsqaUBKTNV-1" vertex="1">
          <mxGeometry x="334" y="990" width="120" height="40" as="geometry" />
        </mxCell>
        <mxCell id="ZI-vQJcTx0TfdvtGSrB0-25" value="res= RES - A = -5" style="rounded=1;whiteSpace=wrap;html=1;fontSize=12;glass=0;strokeWidth=1;shadow=0;" parent="WIyWlLk6GJQsqaUBKTNV-1" vertex="1">
          <mxGeometry x="570" y="990" width="120" height="40" as="geometry" />
        </mxCell>
        <mxCell id="ZI-vQJcTx0TfdvtGSrB0-40" value="res= 0" style="rounded=1;whiteSpace=wrap;html=1;fontSize=12;glass=0;strokeWidth=1;shadow=0;" parent="WIyWlLk6GJQsqaUBKTNV-1" vertex="1">
          <mxGeometry x="110" y="860" width="120" height="40" as="geometry" />
        </mxCell>
        <mxCell id="ZI-vQJcTx0TfdvtGSrB0-42" value="A=5" style="rounded=1;whiteSpace=wrap;html=1;fontSize=12;glass=0;strokeWidth=1;shadow=0;" parent="WIyWlLk6GJQsqaUBKTNV-1" vertex="1">
          <mxGeometry x="334" y="860" width="120" height="40" as="geometry" />
        </mxCell>
        <mxCell id="ZI-vQJcTx0TfdvtGSrB0-43" value="&lt;font style=&quot;font-size: 25px;&quot;&gt;&lt;b&gt;-&lt;/b&gt;&lt;/font&gt;" style="text;html=1;align=center;verticalAlign=middle;resizable=0;points=[];autosize=1;strokeColor=none;fillColor=none;fontSize=16;fontFamily=Helvetica;fontColor=default;" parent="WIyWlLk6GJQsqaUBKTNV-1" vertex="1">
          <mxGeometry x="270" y="860" width="30" height="40" as="geometry" />
        </mxCell>
        <mxCell id="ZI-vQJcTx0TfdvtGSrB0-44" value="&lt;font style=&quot;font-size: 25px;&quot;&gt;&lt;b&gt;=&lt;/b&gt;&lt;/font&gt;" style="text;html=1;align=center;verticalAlign=middle;resizable=0;points=[];autosize=1;strokeColor=none;fillColor=none;fontSize=16;fontFamily=Helvetica;fontColor=default;" parent="WIyWlLk6GJQsqaUBKTNV-1" vertex="1">
          <mxGeometry x="480" y="860" width="40" height="40" as="geometry" />
        </mxCell>
        <mxCell id="ZI-vQJcTx0TfdvtGSrB0-45" value="res = A - res =5" style="rounded=1;whiteSpace=wrap;html=1;fontSize=12;glass=0;strokeWidth=1;shadow=0;" parent="WIyWlLk6GJQsqaUBKTNV-1" vertex="1">
          <mxGeometry x="540" y="860" width="120" height="40" as="geometry" />
        </mxCell>
        <mxCell id="ZI-vQJcTx0TfdvtGSrB0-49" value="&lt;font style=&quot;font-size: 25px;&quot;&gt;Boton -&lt;/font&gt;" style="swimlane;whiteSpace=wrap;html=1;fontFamily=Helvetica;fontSize=12;fontColor=default;" parent="WIyWlLk6GJQsqaUBKTNV-1" vertex="1">
          <mxGeometry x="90" y="710" width="660" height="490" as="geometry" />
        </mxCell>
        <mxCell id="ZI-vQJcTx0TfdvtGSrB0-50" value="&lt;font style=&quot;font-size: 22px;&quot;&gt;Operación == 0&lt;/font&gt;" style="swimlane;whiteSpace=wrap;html=1;fontFamily=Helvetica;fontSize=12;fontColor=default;" parent="ZI-vQJcTx0TfdvtGSrB0-49" vertex="1">
          <mxGeometry y="100" width="660" height="130" as="geometry" />
        </mxCell>
        <mxCell id="ZI-vQJcTx0TfdvtGSrB0-51" value="&lt;font style=&quot;font-size: 22px;&quot;&gt;Operación != 0&lt;/font&gt;" style="swimlane;whiteSpace=wrap;html=1;fontFamily=Helvetica;fontSize=12;fontColor=default;" parent="ZI-vQJcTx0TfdvtGSrB0-49" vertex="1">
          <mxGeometry y="230" width="660" height="260" as="geometry" />
        </mxCell>
        <mxCell id="ZI-vQJcTx0TfdvtGSrB0-53" value="&lt;span style=&quot;font-size: 14px;&quot;&gt;&lt;b style=&quot;font-size: 25px;&quot;&gt;+&lt;/b&gt;&lt;/span&gt;" style="edgeStyle=none;curved=1;rounded=0;orthogonalLoop=1;jettySize=auto;html=1;fontSize=12;startSize=8;endSize=8;verticalAlign=bottom;horizontal=1;labelPosition=center;verticalLabelPosition=top;align=center;" parent="WIyWlLk6GJQsqaUBKTNV-1" source="ZI-vQJcTx0TfdvtGSrB0-54" target="ZI-vQJcTx0TfdvtGSrB0-56" edge="1">
          <mxGeometry x="-0.0045" relative="1" as="geometry">
            <Array as="points">
              <mxPoint x="1010" y="1020" />
            </Array>
            <mxPoint as="offset" />
          </mxGeometry>
        </mxCell>
        <mxCell id="ZI-vQJcTx0TfdvtGSrB0-54" value="res=5" style="rounded=1;whiteSpace=wrap;html=1;fontSize=12;glass=0;strokeWidth=1;shadow=0;" parent="WIyWlLk6GJQsqaUBKTNV-1" vertex="1">
          <mxGeometry x="840" y="1000" width="120" height="40" as="geometry" />
        </mxCell>
        <mxCell id="ZI-vQJcTx0TfdvtGSrB0-55" value="&lt;b&gt;&lt;font style=&quot;font-size: 30px;&quot;&gt;=&lt;/font&gt;&lt;/b&gt;" style="edgeStyle=none;curved=1;rounded=0;orthogonalLoop=1;jettySize=auto;html=1;fontSize=12;startSize=8;endSize=8;verticalAlign=bottom;" parent="WIyWlLk6GJQsqaUBKTNV-1" source="ZI-vQJcTx0TfdvtGSrB0-56" target="ZI-vQJcTx0TfdvtGSrB0-57" edge="1">
          <mxGeometry x="-0.0345" relative="1" as="geometry">
            <mxPoint as="offset" />
          </mxGeometry>
        </mxCell>
        <mxCell id="ZI-vQJcTx0TfdvtGSrB0-56" value="A=10" style="rounded=1;whiteSpace=wrap;html=1;fontSize=12;glass=0;strokeWidth=1;shadow=0;" parent="WIyWlLk6GJQsqaUBKTNV-1" vertex="1">
          <mxGeometry x="1064" y="1000" width="120" height="40" as="geometry" />
        </mxCell>
        <mxCell id="ZI-vQJcTx0TfdvtGSrB0-57" value="res= RES + A = 15" style="rounded=1;whiteSpace=wrap;html=1;fontSize=12;glass=0;strokeWidth=1;shadow=0;" parent="WIyWlLk6GJQsqaUBKTNV-1" vertex="1">
          <mxGeometry x="1300" y="1000" width="120" height="40" as="geometry" />
        </mxCell>
        <mxCell id="ZI-vQJcTx0TfdvtGSrB0-58" value="" style="edgeStyle=none;curved=1;rounded=0;orthogonalLoop=1;jettySize=auto;html=1;fontSize=12;startSize=8;endSize=8;" parent="WIyWlLk6GJQsqaUBKTNV-1" source="ZI-vQJcTx0TfdvtGSrB0-59" target="ZI-vQJcTx0TfdvtGSrB0-61" edge="1">
          <mxGeometry relative="1" as="geometry" />
        </mxCell>
        <mxCell id="ZI-vQJcTx0TfdvtGSrB0-59" value="res= 15" style="rounded=1;whiteSpace=wrap;html=1;fontSize=12;glass=0;strokeWidth=1;shadow=0;" parent="WIyWlLk6GJQsqaUBKTNV-1" vertex="1">
          <mxGeometry x="840" y="1130" width="120" height="40" as="geometry" />
        </mxCell>
        <mxCell id="ZI-vQJcTx0TfdvtGSrB0-60" value="" style="edgeStyle=none;curved=1;rounded=0;orthogonalLoop=1;jettySize=auto;html=1;fontSize=12;startSize=8;endSize=8;" parent="WIyWlLk6GJQsqaUBKTNV-1" source="ZI-vQJcTx0TfdvtGSrB0-61" target="ZI-vQJcTx0TfdvtGSrB0-62" edge="1">
          <mxGeometry relative="1" as="geometry" />
        </mxCell>
        <mxCell id="ZI-vQJcTx0TfdvtGSrB0-61" value="A=3" style="rounded=1;whiteSpace=wrap;html=1;fontSize=12;glass=0;strokeWidth=1;shadow=0;" parent="WIyWlLk6GJQsqaUBKTNV-1" vertex="1">
          <mxGeometry x="1050" y="1130" width="120" height="40" as="geometry" />
        </mxCell>
        <mxCell id="ZI-vQJcTx0TfdvtGSrB0-62" value="res= RES + A = 18" style="rounded=1;whiteSpace=wrap;html=1;fontSize=12;glass=0;strokeWidth=1;shadow=0;" parent="WIyWlLk6GJQsqaUBKTNV-1" vertex="1">
          <mxGeometry x="1290" y="1130" width="120" height="40" as="geometry" />
        </mxCell>
        <mxCell id="ZI-vQJcTx0TfdvtGSrB0-63" value="&lt;font style=&quot;font-size: 25px;&quot;&gt;&lt;b&gt;+&lt;/b&gt;&lt;/font&gt;" style="text;html=1;align=center;verticalAlign=middle;resizable=0;points=[];autosize=1;strokeColor=none;fillColor=none;fontSize=16;fontFamily=Helvetica;fontColor=default;" parent="WIyWlLk6GJQsqaUBKTNV-1" vertex="1">
          <mxGeometry x="975" y="1110" width="40" height="40" as="geometry" />
        </mxCell>
        <mxCell id="ZI-vQJcTx0TfdvtGSrB0-64" value="res= 0" style="rounded=1;whiteSpace=wrap;html=1;fontSize=12;glass=0;strokeWidth=1;shadow=0;" parent="WIyWlLk6GJQsqaUBKTNV-1" vertex="1">
          <mxGeometry x="840" y="870" width="120" height="40" as="geometry" />
        </mxCell>
        <mxCell id="ZI-vQJcTx0TfdvtGSrB0-65" value="&lt;font style=&quot;font-size: 25px;&quot;&gt;&lt;b&gt;=&lt;/b&gt;&lt;/font&gt;" style="text;html=1;align=center;verticalAlign=middle;resizable=0;points=[];autosize=1;strokeColor=none;fillColor=none;fontSize=16;fontFamily=Helvetica;fontColor=default;" parent="WIyWlLk6GJQsqaUBKTNV-1" vertex="1">
          <mxGeometry x="1210" y="1110" width="40" height="40" as="geometry" />
        </mxCell>
        <mxCell id="ZI-vQJcTx0TfdvtGSrB0-66" value="A=5" style="rounded=1;whiteSpace=wrap;html=1;fontSize=12;glass=0;strokeWidth=1;shadow=0;" parent="WIyWlLk6GJQsqaUBKTNV-1" vertex="1">
          <mxGeometry x="1064" y="870" width="120" height="40" as="geometry" />
        </mxCell>
        <mxCell id="ZI-vQJcTx0TfdvtGSrB0-67" value="&lt;font style=&quot;font-size: 25px;&quot;&gt;&lt;b&gt;+&lt;/b&gt;&lt;/font&gt;" style="text;html=1;align=center;verticalAlign=middle;resizable=0;points=[];autosize=1;strokeColor=none;fillColor=none;fontSize=16;fontFamily=Helvetica;fontColor=default;" parent="WIyWlLk6GJQsqaUBKTNV-1" vertex="1">
          <mxGeometry x="995" y="870" width="40" height="40" as="geometry" />
        </mxCell>
        <mxCell id="ZI-vQJcTx0TfdvtGSrB0-68" value="&lt;font style=&quot;font-size: 25px;&quot;&gt;&lt;b&gt;=&lt;/b&gt;&lt;/font&gt;" style="text;html=1;align=center;verticalAlign=middle;resizable=0;points=[];autosize=1;strokeColor=none;fillColor=none;fontSize=16;fontFamily=Helvetica;fontColor=default;" parent="WIyWlLk6GJQsqaUBKTNV-1" vertex="1">
          <mxGeometry x="1210" y="870" width="40" height="40" as="geometry" />
        </mxCell>
        <mxCell id="ZI-vQJcTx0TfdvtGSrB0-69" value="res = A + res = 5" style="rounded=1;whiteSpace=wrap;html=1;fontSize=12;glass=0;strokeWidth=1;shadow=0;" parent="WIyWlLk6GJQsqaUBKTNV-1" vertex="1">
          <mxGeometry x="1270" y="870" width="120" height="40" as="geometry" />
        </mxCell>
        <mxCell id="ZI-vQJcTx0TfdvtGSrB0-70" value="&lt;font style=&quot;font-size: 25px;&quot;&gt;Boton +&lt;/font&gt;" style="swimlane;whiteSpace=wrap;html=1;fontFamily=Helvetica;fontSize=12;fontColor=default;" parent="WIyWlLk6GJQsqaUBKTNV-1" vertex="1">
          <mxGeometry x="820" y="720" width="660" height="490" as="geometry" />
        </mxCell>
        <mxCell id="ZI-vQJcTx0TfdvtGSrB0-71" value="&lt;font style=&quot;font-size: 22px;&quot;&gt;Operación == 0&lt;/font&gt;" style="swimlane;whiteSpace=wrap;html=1;fontFamily=Helvetica;fontSize=12;fontColor=default;" parent="ZI-vQJcTx0TfdvtGSrB0-70" vertex="1">
          <mxGeometry y="100" width="660" height="130" as="geometry" />
        </mxCell>
        <mxCell id="ZI-vQJcTx0TfdvtGSrB0-72" value="&lt;font style=&quot;font-size: 22px;&quot;&gt;Operación != 0&lt;/font&gt;" style="swimlane;whiteSpace=wrap;html=1;fontFamily=Helvetica;fontSize=12;fontColor=default;" parent="ZI-vQJcTx0TfdvtGSrB0-70" vertex="1">
          <mxGeometry y="230" width="660" height="260" as="geometry" />
        </mxCell>
        <mxCell id="ZI-vQJcTx0TfdvtGSrB0-73" value="&lt;span style=&quot;font-size: 14px;&quot;&gt;&lt;b style=&quot;font-size: 25px;&quot;&gt;+&lt;/b&gt;&lt;/span&gt;" style="edgeStyle=none;curved=1;rounded=0;orthogonalLoop=1;jettySize=auto;html=1;fontSize=12;startSize=8;endSize=8;verticalAlign=bottom;horizontal=1;labelPosition=center;verticalLabelPosition=top;align=center;" parent="WIyWlLk6GJQsqaUBKTNV-1" source="ZI-vQJcTx0TfdvtGSrB0-74" target="ZI-vQJcTx0TfdvtGSrB0-76" edge="1">
          <mxGeometry x="-0.0045" relative="1" as="geometry">
            <Array as="points">
              <mxPoint x="1017" y="1580" />
            </Array>
            <mxPoint as="offset" />
          </mxGeometry>
        </mxCell>
        <mxCell id="ZI-vQJcTx0TfdvtGSrB0-74" value="res=5" style="rounded=1;whiteSpace=wrap;html=1;fontSize=12;glass=0;strokeWidth=1;shadow=0;" parent="WIyWlLk6GJQsqaUBKTNV-1" vertex="1">
          <mxGeometry x="847" y="1560" width="120" height="40" as="geometry" />
        </mxCell>
        <mxCell id="ZI-vQJcTx0TfdvtGSrB0-75" value="&lt;b&gt;&lt;font style=&quot;font-size: 30px;&quot;&gt;=&lt;/font&gt;&lt;/b&gt;" style="edgeStyle=none;curved=1;rounded=0;orthogonalLoop=1;jettySize=auto;html=1;fontSize=12;startSize=8;endSize=8;verticalAlign=bottom;" parent="WIyWlLk6GJQsqaUBKTNV-1" source="ZI-vQJcTx0TfdvtGSrB0-76" target="ZI-vQJcTx0TfdvtGSrB0-77" edge="1">
          <mxGeometry x="-0.0345" relative="1" as="geometry">
            <mxPoint as="offset" />
          </mxGeometry>
        </mxCell>
        <mxCell id="ZI-vQJcTx0TfdvtGSrB0-76" value="A=10" style="rounded=1;whiteSpace=wrap;html=1;fontSize=12;glass=0;strokeWidth=1;shadow=0;" parent="WIyWlLk6GJQsqaUBKTNV-1" vertex="1">
          <mxGeometry x="1071" y="1560" width="120" height="40" as="geometry" />
        </mxCell>
        <mxCell id="ZI-vQJcTx0TfdvtGSrB0-77" value="res= RES + A = 15" style="rounded=1;whiteSpace=wrap;html=1;fontSize=12;glass=0;strokeWidth=1;shadow=0;" parent="WIyWlLk6GJQsqaUBKTNV-1" vertex="1">
          <mxGeometry x="1307" y="1560" width="120" height="40" as="geometry" />
        </mxCell>
        <mxCell id="ZI-vQJcTx0TfdvtGSrB0-78" value="" style="edgeStyle=none;curved=1;rounded=0;orthogonalLoop=1;jettySize=auto;html=1;fontSize=12;startSize=8;endSize=8;" parent="WIyWlLk6GJQsqaUBKTNV-1" source="ZI-vQJcTx0TfdvtGSrB0-79" target="ZI-vQJcTx0TfdvtGSrB0-81" edge="1">
          <mxGeometry relative="1" as="geometry" />
        </mxCell>
        <mxCell id="ZI-vQJcTx0TfdvtGSrB0-79" value="res= 15" style="rounded=1;whiteSpace=wrap;html=1;fontSize=12;glass=0;strokeWidth=1;shadow=0;" parent="WIyWlLk6GJQsqaUBKTNV-1" vertex="1">
          <mxGeometry x="847" y="1690" width="120" height="40" as="geometry" />
        </mxCell>
        <mxCell id="ZI-vQJcTx0TfdvtGSrB0-80" value="" style="edgeStyle=none;curved=1;rounded=0;orthogonalLoop=1;jettySize=auto;html=1;fontSize=12;startSize=8;endSize=8;" parent="WIyWlLk6GJQsqaUBKTNV-1" source="ZI-vQJcTx0TfdvtGSrB0-81" target="ZI-vQJcTx0TfdvtGSrB0-82" edge="1">
          <mxGeometry relative="1" as="geometry" />
        </mxCell>
        <mxCell id="ZI-vQJcTx0TfdvtGSrB0-81" value="A=3" style="rounded=1;whiteSpace=wrap;html=1;fontSize=12;glass=0;strokeWidth=1;shadow=0;" parent="WIyWlLk6GJQsqaUBKTNV-1" vertex="1">
          <mxGeometry x="1057" y="1690" width="120" height="40" as="geometry" />
        </mxCell>
        <mxCell id="ZI-vQJcTx0TfdvtGSrB0-82" value="res= RES + A = 18" style="rounded=1;whiteSpace=wrap;html=1;fontSize=12;glass=0;strokeWidth=1;shadow=0;" parent="WIyWlLk6GJQsqaUBKTNV-1" vertex="1">
          <mxGeometry x="1297" y="1690" width="120" height="40" as="geometry" />
        </mxCell>
        <mxCell id="ZI-vQJcTx0TfdvtGSrB0-83" value="&lt;font style=&quot;font-size: 25px;&quot;&gt;&lt;b&gt;+&lt;/b&gt;&lt;/font&gt;" style="text;html=1;align=center;verticalAlign=middle;resizable=0;points=[];autosize=1;strokeColor=none;fillColor=none;fontSize=16;fontFamily=Helvetica;fontColor=default;" parent="WIyWlLk6GJQsqaUBKTNV-1" vertex="1">
          <mxGeometry x="982" y="1670" width="40" height="40" as="geometry" />
        </mxCell>
        <mxCell id="ZI-vQJcTx0TfdvtGSrB0-84" value="res= 0" style="rounded=1;whiteSpace=wrap;html=1;fontSize=12;glass=0;strokeWidth=1;shadow=0;" parent="WIyWlLk6GJQsqaUBKTNV-1" vertex="1">
          <mxGeometry x="847" y="1430" width="120" height="40" as="geometry" />
        </mxCell>
        <mxCell id="ZI-vQJcTx0TfdvtGSrB0-85" value="&lt;font style=&quot;font-size: 25px;&quot;&gt;&lt;b&gt;=&lt;/b&gt;&lt;/font&gt;" style="text;html=1;align=center;verticalAlign=middle;resizable=0;points=[];autosize=1;strokeColor=none;fillColor=none;fontSize=16;fontFamily=Helvetica;fontColor=default;" parent="WIyWlLk6GJQsqaUBKTNV-1" vertex="1">
          <mxGeometry x="1217" y="1670" width="40" height="40" as="geometry" />
        </mxCell>
        <mxCell id="ZI-vQJcTx0TfdvtGSrB0-86" value="A=5" style="rounded=1;whiteSpace=wrap;html=1;fontSize=12;glass=0;strokeWidth=1;shadow=0;" parent="WIyWlLk6GJQsqaUBKTNV-1" vertex="1">
          <mxGeometry x="1071" y="1430" width="120" height="40" as="geometry" />
        </mxCell>
        <mxCell id="ZI-vQJcTx0TfdvtGSrB0-87" value="&lt;font style=&quot;font-size: 25px;&quot;&gt;&lt;b&gt;+&lt;/b&gt;&lt;/font&gt;" style="text;html=1;align=center;verticalAlign=middle;resizable=0;points=[];autosize=1;strokeColor=none;fillColor=none;fontSize=16;fontFamily=Helvetica;fontColor=default;" parent="WIyWlLk6GJQsqaUBKTNV-1" vertex="1">
          <mxGeometry x="1002" y="1430" width="40" height="40" as="geometry" />
        </mxCell>
        <mxCell id="ZI-vQJcTx0TfdvtGSrB0-88" value="&lt;font style=&quot;font-size: 25px;&quot;&gt;&lt;b&gt;=&lt;/b&gt;&lt;/font&gt;" style="text;html=1;align=center;verticalAlign=middle;resizable=0;points=[];autosize=1;strokeColor=none;fillColor=none;fontSize=16;fontFamily=Helvetica;fontColor=default;" parent="WIyWlLk6GJQsqaUBKTNV-1" vertex="1">
          <mxGeometry x="1217" y="1430" width="40" height="40" as="geometry" />
        </mxCell>
        <mxCell id="ZI-vQJcTx0TfdvtGSrB0-89" value="res = A + res = 5" style="rounded=1;whiteSpace=wrap;html=1;fontSize=12;glass=0;strokeWidth=1;shadow=0;" parent="WIyWlLk6GJQsqaUBKTNV-1" vertex="1">
          <mxGeometry x="1277" y="1430" width="120" height="40" as="geometry" />
        </mxCell>
        <mxCell id="ZI-vQJcTx0TfdvtGSrB0-90" value="&lt;font style=&quot;font-size: 25px;&quot;&gt;Boton +&lt;/font&gt;" style="swimlane;whiteSpace=wrap;html=1;fontFamily=Helvetica;fontSize=12;fontColor=default;" parent="WIyWlLk6GJQsqaUBKTNV-1" vertex="1">
          <mxGeometry x="827" y="1280" width="660" height="490" as="geometry" />
        </mxCell>
        <mxCell id="ZI-vQJcTx0TfdvtGSrB0-91" value="&lt;font style=&quot;font-size: 22px;&quot;&gt;Operación == 0&lt;/font&gt;" style="swimlane;whiteSpace=wrap;html=1;fontFamily=Helvetica;fontSize=12;fontColor=default;" parent="ZI-vQJcTx0TfdvtGSrB0-90" vertex="1">
          <mxGeometry y="100" width="660" height="130" as="geometry" />
        </mxCell>
        <mxCell id="ZI-vQJcTx0TfdvtGSrB0-92" value="&lt;font style=&quot;font-size: 22px;&quot;&gt;Operación != 0&lt;/font&gt;" style="swimlane;whiteSpace=wrap;html=1;fontFamily=Helvetica;fontSize=12;fontColor=default;" parent="ZI-vQJcTx0TfdvtGSrB0-90" vertex="1">
          <mxGeometry y="230" width="660" height="260" as="geometry" />
        </mxCell>
        <mxCell id="ZI-vQJcTx0TfdvtGSrB0-113" value="&lt;span style=&quot;font-size: 14px;&quot;&gt;&lt;b style=&quot;font-size: 25px;&quot;&gt;/&lt;/b&gt;&lt;/span&gt;" style="edgeStyle=none;curved=1;rounded=0;orthogonalLoop=1;jettySize=auto;html=1;fontSize=12;startSize=8;endSize=8;verticalAlign=bottom;horizontal=1;labelPosition=center;verticalLabelPosition=top;align=center;" parent="WIyWlLk6GJQsqaUBKTNV-1" source="ZI-vQJcTx0TfdvtGSrB0-114" target="ZI-vQJcTx0TfdvtGSrB0-116" edge="1">
          <mxGeometry x="-0.0045" relative="1" as="geometry">
            <Array as="points">
              <mxPoint x="300" y="1580" />
            </Array>
            <mxPoint as="offset" />
          </mxGeometry>
        </mxCell>
        <mxCell id="ZI-vQJcTx0TfdvtGSrB0-114" value="res=20" style="rounded=1;whiteSpace=wrap;html=1;fontSize=12;glass=0;strokeWidth=1;shadow=0;" parent="WIyWlLk6GJQsqaUBKTNV-1" vertex="1">
          <mxGeometry x="130" y="1560" width="120" height="40" as="geometry" />
        </mxCell>
        <mxCell id="ZI-vQJcTx0TfdvtGSrB0-115" value="&lt;b&gt;&lt;font style=&quot;font-size: 30px;&quot;&gt;=&lt;/font&gt;&lt;/b&gt;" style="edgeStyle=none;curved=1;rounded=0;orthogonalLoop=1;jettySize=auto;html=1;fontSize=12;startSize=8;endSize=8;verticalAlign=bottom;" parent="WIyWlLk6GJQsqaUBKTNV-1" source="ZI-vQJcTx0TfdvtGSrB0-116" target="ZI-vQJcTx0TfdvtGSrB0-117" edge="1">
          <mxGeometry x="-0.0345" relative="1" as="geometry">
            <mxPoint as="offset" />
          </mxGeometry>
        </mxCell>
        <mxCell id="ZI-vQJcTx0TfdvtGSrB0-116" value="A=2" style="rounded=1;whiteSpace=wrap;html=1;fontSize=12;glass=0;strokeWidth=1;shadow=0;" parent="WIyWlLk6GJQsqaUBKTNV-1" vertex="1">
          <mxGeometry x="354" y="1560" width="120" height="40" as="geometry" />
        </mxCell>
        <mxCell id="ZI-vQJcTx0TfdvtGSrB0-117" value="res= RES / A = 10" style="rounded=1;whiteSpace=wrap;html=1;fontSize=12;glass=0;strokeWidth=1;shadow=0;" parent="WIyWlLk6GJQsqaUBKTNV-1" vertex="1">
          <mxGeometry x="590" y="1560" width="120" height="40" as="geometry" />
        </mxCell>
        <mxCell id="ZI-vQJcTx0TfdvtGSrB0-118" value="" style="edgeStyle=none;curved=1;rounded=0;orthogonalLoop=1;jettySize=auto;html=1;fontSize=12;startSize=8;endSize=8;" parent="WIyWlLk6GJQsqaUBKTNV-1" source="ZI-vQJcTx0TfdvtGSrB0-119" target="ZI-vQJcTx0TfdvtGSrB0-121" edge="1">
          <mxGeometry relative="1" as="geometry" />
        </mxCell>
        <mxCell id="ZI-vQJcTx0TfdvtGSrB0-119" value="res= 10" style="rounded=1;whiteSpace=wrap;html=1;fontSize=12;glass=0;strokeWidth=1;shadow=0;" parent="WIyWlLk6GJQsqaUBKTNV-1" vertex="1">
          <mxGeometry x="130" y="1690" width="120" height="40" as="geometry" />
        </mxCell>
        <mxCell id="ZI-vQJcTx0TfdvtGSrB0-120" value="" style="edgeStyle=none;curved=1;rounded=0;orthogonalLoop=1;jettySize=auto;html=1;fontSize=12;startSize=8;endSize=8;" parent="WIyWlLk6GJQsqaUBKTNV-1" source="ZI-vQJcTx0TfdvtGSrB0-121" target="ZI-vQJcTx0TfdvtGSrB0-122" edge="1">
          <mxGeometry relative="1" as="geometry" />
        </mxCell>
        <mxCell id="ZI-vQJcTx0TfdvtGSrB0-121" value="A=5" style="rounded=1;whiteSpace=wrap;html=1;fontSize=12;glass=0;strokeWidth=1;shadow=0;" parent="WIyWlLk6GJQsqaUBKTNV-1" vertex="1">
          <mxGeometry x="340" y="1690" width="120" height="40" as="geometry" />
        </mxCell>
        <mxCell id="ZI-vQJcTx0TfdvtGSrB0-122" value="res= RES + A = 2" style="rounded=1;whiteSpace=wrap;html=1;fontSize=12;glass=0;strokeWidth=1;shadow=0;" parent="WIyWlLk6GJQsqaUBKTNV-1" vertex="1">
          <mxGeometry x="580" y="1690" width="120" height="40" as="geometry" />
        </mxCell>
        <mxCell id="ZI-vQJcTx0TfdvtGSrB0-123" value="&lt;font style=&quot;font-size: 25px;&quot;&gt;&lt;b&gt;/&lt;/b&gt;&lt;/font&gt;" style="text;html=1;align=center;verticalAlign=middle;resizable=0;points=[];autosize=1;strokeColor=none;fillColor=none;fontSize=16;fontFamily=Helvetica;fontColor=default;" parent="WIyWlLk6GJQsqaUBKTNV-1" vertex="1">
          <mxGeometry x="270" y="1670" width="30" height="40" as="geometry" />
        </mxCell>
        <mxCell id="ZI-vQJcTx0TfdvtGSrB0-124" value="res= 1" style="rounded=1;whiteSpace=wrap;html=1;fontSize=12;glass=0;strokeWidth=1;shadow=0;" parent="WIyWlLk6GJQsqaUBKTNV-1" vertex="1">
          <mxGeometry x="130" y="1430" width="120" height="40" as="geometry" />
        </mxCell>
        <mxCell id="ZI-vQJcTx0TfdvtGSrB0-125" value="&lt;font style=&quot;font-size: 25px;&quot;&gt;&lt;b&gt;=&lt;/b&gt;&lt;/font&gt;" style="text;html=1;align=center;verticalAlign=middle;resizable=0;points=[];autosize=1;strokeColor=none;fillColor=none;fontSize=16;fontFamily=Helvetica;fontColor=default;" parent="WIyWlLk6GJQsqaUBKTNV-1" vertex="1">
          <mxGeometry x="500" y="1670" width="40" height="40" as="geometry" />
        </mxCell>
        <mxCell id="ZI-vQJcTx0TfdvtGSrB0-126" value="A=20" style="rounded=1;whiteSpace=wrap;html=1;fontSize=12;glass=0;strokeWidth=1;shadow=0;" parent="WIyWlLk6GJQsqaUBKTNV-1" vertex="1">
          <mxGeometry x="354" y="1430" width="120" height="40" as="geometry" />
        </mxCell>
        <mxCell id="ZI-vQJcTx0TfdvtGSrB0-127" value="&lt;font style=&quot;font-size: 25px;&quot;&gt;&lt;b&gt;/&lt;/b&gt;&lt;/font&gt;" style="text;html=1;align=center;verticalAlign=middle;resizable=0;points=[];autosize=1;strokeColor=none;fillColor=none;fontSize=16;fontFamily=Helvetica;fontColor=default;" parent="WIyWlLk6GJQsqaUBKTNV-1" vertex="1">
          <mxGeometry x="290" y="1430" width="30" height="40" as="geometry" />
        </mxCell>
        <mxCell id="ZI-vQJcTx0TfdvtGSrB0-128" value="&lt;font style=&quot;font-size: 25px;&quot;&gt;&lt;b&gt;=&lt;/b&gt;&lt;/font&gt;" style="text;html=1;align=center;verticalAlign=middle;resizable=0;points=[];autosize=1;strokeColor=none;fillColor=none;fontSize=16;fontFamily=Helvetica;fontColor=default;" parent="WIyWlLk6GJQsqaUBKTNV-1" vertex="1">
          <mxGeometry x="500" y="1430" width="40" height="40" as="geometry" />
        </mxCell>
        <mxCell id="ZI-vQJcTx0TfdvtGSrB0-129" value="res = A / res = 5" style="rounded=1;whiteSpace=wrap;html=1;fontSize=12;glass=0;strokeWidth=1;shadow=0;" parent="WIyWlLk6GJQsqaUBKTNV-1" vertex="1">
          <mxGeometry x="560" y="1430" width="120" height="40" as="geometry" />
        </mxCell>
        <mxCell id="ZI-vQJcTx0TfdvtGSrB0-130" value="&lt;font style=&quot;font-size: 25px;&quot;&gt;Boton /&lt;/font&gt;" style="swimlane;whiteSpace=wrap;html=1;fontFamily=Helvetica;fontSize=12;fontColor=default;" parent="WIyWlLk6GJQsqaUBKTNV-1" vertex="1">
          <mxGeometry x="110" y="1280" width="660" height="490" as="geometry" />
        </mxCell>
        <mxCell id="ZI-vQJcTx0TfdvtGSrB0-131" value="&lt;font style=&quot;font-size: 22px;&quot;&gt;Operación == 0&lt;/font&gt;" style="swimlane;whiteSpace=wrap;html=1;fontFamily=Helvetica;fontSize=12;fontColor=default;" parent="ZI-vQJcTx0TfdvtGSrB0-130" vertex="1">
          <mxGeometry y="100" width="660" height="130" as="geometry" />
        </mxCell>
        <mxCell id="ZI-vQJcTx0TfdvtGSrB0-132" value="&lt;font style=&quot;font-size: 22px;&quot;&gt;Operación != 0&lt;/font&gt;" style="swimlane;whiteSpace=wrap;html=1;fontFamily=Helvetica;fontSize=12;fontColor=default;" parent="ZI-vQJcTx0TfdvtGSrB0-130" vertex="1">
          <mxGeometry y="230" width="660" height="260" as="geometry" />
        </mxCell>
        <mxCell id="ZI-vQJcTx0TfdvtGSrB0-138" value="" style="edgeStyle=none;curved=1;rounded=0;orthogonalLoop=1;jettySize=auto;html=1;fontSize=12;startSize=8;endSize=8;" parent="WIyWlLk6GJQsqaUBKTNV-1" source="ZI-vQJcTx0TfdvtGSrB0-139" target="ZI-vQJcTx0TfdvtGSrB0-141" edge="1">
          <mxGeometry relative="1" as="geometry" />
        </mxCell>
        <mxCell id="ZI-vQJcTx0TfdvtGSrB0-139" value="res= -5" style="rounded=1;whiteSpace=wrap;html=1;fontSize=12;glass=0;strokeWidth=1;shadow=0;" parent="WIyWlLk6GJQsqaUBKTNV-1" vertex="1">
          <mxGeometry x="110" y="1120" width="120" height="40" as="geometry" />
        </mxCell>
        <mxCell id="ZI-vQJcTx0TfdvtGSrB0-140" value="" style="edgeStyle=none;curved=1;rounded=0;orthogonalLoop=1;jettySize=auto;html=1;fontSize=12;startSize=8;endSize=8;" parent="WIyWlLk6GJQsqaUBKTNV-1" source="ZI-vQJcTx0TfdvtGSrB0-141" target="ZI-vQJcTx0TfdvtGSrB0-142" edge="1">
          <mxGeometry relative="1" as="geometry" />
        </mxCell>
        <mxCell id="ZI-vQJcTx0TfdvtGSrB0-141" value="A=3" style="rounded=1;whiteSpace=wrap;html=1;fontSize=12;glass=0;strokeWidth=1;shadow=0;" parent="WIyWlLk6GJQsqaUBKTNV-1" vertex="1">
          <mxGeometry x="320" y="1120" width="120" height="40" as="geometry" />
        </mxCell>
        <mxCell id="ZI-vQJcTx0TfdvtGSrB0-142" value="res=-8" style="rounded=1;whiteSpace=wrap;html=1;fontSize=12;glass=0;strokeWidth=1;shadow=0;" parent="WIyWlLk6GJQsqaUBKTNV-1" vertex="1">
          <mxGeometry x="560" y="1120" width="120" height="40" as="geometry" />
        </mxCell>
        <mxCell id="ZI-vQJcTx0TfdvtGSrB0-143" value="&lt;font style=&quot;font-size: 25px;&quot;&gt;&lt;b&gt;-&lt;/b&gt;&lt;/font&gt;" style="text;html=1;align=center;verticalAlign=middle;resizable=0;points=[];autosize=1;strokeColor=none;fillColor=none;fontSize=16;fontFamily=Helvetica;fontColor=default;" parent="WIyWlLk6GJQsqaUBKTNV-1" vertex="1">
          <mxGeometry x="250" y="1100" width="30" height="40" as="geometry" />
        </mxCell>
        <mxCell id="ZI-vQJcTx0TfdvtGSrB0-144" value="&lt;font style=&quot;font-size: 25px;&quot;&gt;&lt;b&gt;=&lt;/b&gt;&lt;/font&gt;" style="text;html=1;align=center;verticalAlign=middle;resizable=0;points=[];autosize=1;strokeColor=none;fillColor=none;fontSize=16;fontFamily=Helvetica;fontColor=default;" parent="WIyWlLk6GJQsqaUBKTNV-1" vertex="1">
          <mxGeometry x="480" y="1100" width="40" height="40" as="geometry" />
        </mxCell>
        <mxCell id="ZI-vQJcTx0TfdvtGSrB0-145" value="" style="edgeStyle=none;curved=1;rounded=0;orthogonalLoop=1;jettySize=auto;html=1;fontSize=12;startSize=8;endSize=8;" parent="WIyWlLk6GJQsqaUBKTNV-1" source="ZI-vQJcTx0TfdvtGSrB0-146" target="ZI-vQJcTx0TfdvtGSrB0-148" edge="1">
          <mxGeometry relative="1" as="geometry" />
        </mxCell>
        <mxCell id="ZI-vQJcTx0TfdvtGSrB0-146" value="res= 0" style="rounded=1;whiteSpace=wrap;html=1;fontSize=12;glass=0;strokeWidth=1;shadow=0;" parent="WIyWlLk6GJQsqaUBKTNV-1" vertex="1">
          <mxGeometry x="109" y="2040" width="120" height="40" as="geometry" />
        </mxCell>
        <mxCell id="ZI-vQJcTx0TfdvtGSrB0-147" value="" style="edgeStyle=none;curved=1;rounded=0;orthogonalLoop=1;jettySize=auto;html=1;fontSize=12;startSize=8;endSize=8;" parent="WIyWlLk6GJQsqaUBKTNV-1" source="ZI-vQJcTx0TfdvtGSrB0-148" target="ZI-vQJcTx0TfdvtGSrB0-149" edge="1">
          <mxGeometry relative="1" as="geometry" />
        </mxCell>
        <mxCell id="ZI-vQJcTx0TfdvtGSrB0-148" value="A=3" style="rounded=1;whiteSpace=wrap;html=1;fontSize=12;glass=0;strokeWidth=1;shadow=0;" parent="WIyWlLk6GJQsqaUBKTNV-1" vertex="1">
          <mxGeometry x="319" y="2040" width="120" height="40" as="geometry" />
        </mxCell>
        <mxCell id="ZI-vQJcTx0TfdvtGSrB0-149" value="res= res+a=3" style="rounded=1;whiteSpace=wrap;html=1;fontSize=12;glass=0;strokeWidth=1;shadow=0;" parent="WIyWlLk6GJQsqaUBKTNV-1" vertex="1">
          <mxGeometry x="559" y="2040" width="120" height="40" as="geometry" />
        </mxCell>
        <mxCell id="ZI-vQJcTx0TfdvtGSrB0-150" value="&lt;font style=&quot;font-size: 25px;&quot;&gt;&lt;b&gt;+&lt;/b&gt;&lt;/font&gt;" style="text;html=1;align=center;verticalAlign=middle;resizable=0;points=[];autosize=1;strokeColor=none;fillColor=none;fontSize=16;fontFamily=Helvetica;fontColor=default;" parent="WIyWlLk6GJQsqaUBKTNV-1" vertex="1">
          <mxGeometry x="244" y="2020" width="40" height="40" as="geometry" />
        </mxCell>
        <mxCell id="ZI-vQJcTx0TfdvtGSrB0-151" value="&lt;font style=&quot;font-size: 25px;&quot;&gt;&lt;b&gt;=&lt;/b&gt;&lt;/font&gt;" style="text;html=1;align=center;verticalAlign=middle;resizable=0;points=[];autosize=1;strokeColor=none;fillColor=none;fontSize=16;fontFamily=Helvetica;fontColor=default;" parent="WIyWlLk6GJQsqaUBKTNV-1" vertex="1">
          <mxGeometry x="479" y="2020" width="40" height="40" as="geometry" />
        </mxCell>
        <mxCell id="ZI-vQJcTx0TfdvtGSrB0-152" value="" style="edgeStyle=none;curved=1;rounded=0;orthogonalLoop=1;jettySize=auto;html=1;fontSize=12;startSize=8;endSize=8;" parent="WIyWlLk6GJQsqaUBKTNV-1" source="ZI-vQJcTx0TfdvtGSrB0-153" target="ZI-vQJcTx0TfdvtGSrB0-155" edge="1">
          <mxGeometry relative="1" as="geometry" />
        </mxCell>
        <mxCell id="ZI-vQJcTx0TfdvtGSrB0-153" value="res= 3" style="rounded=1;whiteSpace=wrap;html=1;fontSize=12;glass=0;strokeWidth=1;shadow=0;" parent="WIyWlLk6GJQsqaUBKTNV-1" vertex="1">
          <mxGeometry x="109" y="2120" width="120" height="40" as="geometry" />
        </mxCell>
        <mxCell id="ZI-vQJcTx0TfdvtGSrB0-154" value="" style="edgeStyle=none;curved=1;rounded=0;orthogonalLoop=1;jettySize=auto;html=1;fontSize=12;startSize=8;endSize=8;" parent="WIyWlLk6GJQsqaUBKTNV-1" source="ZI-vQJcTx0TfdvtGSrB0-155" target="ZI-vQJcTx0TfdvtGSrB0-156" edge="1">
          <mxGeometry relative="1" as="geometry" />
        </mxCell>
        <mxCell id="ZI-vQJcTx0TfdvtGSrB0-155" value="A=4" style="rounded=1;whiteSpace=wrap;html=1;fontSize=12;glass=0;strokeWidth=1;shadow=0;" parent="WIyWlLk6GJQsqaUBKTNV-1" vertex="1">
          <mxGeometry x="319" y="2120" width="120" height="40" as="geometry" />
        </mxCell>
        <mxCell id="ZI-vQJcTx0TfdvtGSrB0-156" value="res= res + a =7" style="rounded=1;whiteSpace=wrap;html=1;fontSize=12;glass=0;strokeWidth=1;shadow=0;" parent="WIyWlLk6GJQsqaUBKTNV-1" vertex="1">
          <mxGeometry x="559" y="2120" width="120" height="40" as="geometry" />
        </mxCell>
        <mxCell id="ZI-vQJcTx0TfdvtGSrB0-157" value="&lt;font style=&quot;font-size: 25px;&quot;&gt;&lt;b&gt;+&lt;/b&gt;&lt;/font&gt;" style="text;html=1;align=center;verticalAlign=middle;resizable=0;points=[];autosize=1;strokeColor=none;fillColor=none;fontSize=16;fontFamily=Helvetica;fontColor=default;" parent="WIyWlLk6GJQsqaUBKTNV-1" vertex="1">
          <mxGeometry x="249" y="2100" width="40" height="40" as="geometry" />
        </mxCell>
        <mxCell id="ZI-vQJcTx0TfdvtGSrB0-158" value="&lt;font style=&quot;font-size: 25px;&quot;&gt;&lt;b&gt;=&lt;/b&gt;&lt;/font&gt;" style="text;html=1;align=center;verticalAlign=middle;resizable=0;points=[];autosize=1;strokeColor=none;fillColor=none;fontSize=16;fontFamily=Helvetica;fontColor=default;" parent="WIyWlLk6GJQsqaUBKTNV-1" vertex="1">
          <mxGeometry x="479" y="2100" width="40" height="40" as="geometry" />
        </mxCell>
        <mxCell id="ZI-vQJcTx0TfdvtGSrB0-159" value="" style="edgeStyle=none;curved=1;rounded=0;orthogonalLoop=1;jettySize=auto;html=1;fontSize=12;startSize=8;endSize=8;" parent="WIyWlLk6GJQsqaUBKTNV-1" source="ZI-vQJcTx0TfdvtGSrB0-160" target="ZI-vQJcTx0TfdvtGSrB0-162" edge="1">
          <mxGeometry relative="1" as="geometry" />
        </mxCell>
        <mxCell id="ZI-vQJcTx0TfdvtGSrB0-160" value="res= 7" style="rounded=1;whiteSpace=wrap;html=1;fontSize=12;glass=0;strokeWidth=1;shadow=0;" parent="WIyWlLk6GJQsqaUBKTNV-1" vertex="1">
          <mxGeometry x="109" y="2200" width="120" height="40" as="geometry" />
        </mxCell>
        <mxCell id="ZI-vQJcTx0TfdvtGSrB0-161" value="" style="edgeStyle=none;curved=1;rounded=0;orthogonalLoop=1;jettySize=auto;html=1;fontSize=12;startSize=8;endSize=8;" parent="WIyWlLk6GJQsqaUBKTNV-1" source="ZI-vQJcTx0TfdvtGSrB0-162" target="ZI-vQJcTx0TfdvtGSrB0-163" edge="1">
          <mxGeometry relative="1" as="geometry" />
        </mxCell>
        <mxCell id="ZI-vQJcTx0TfdvtGSrB0-162" value="A=12" style="rounded=1;whiteSpace=wrap;html=1;fontSize=12;glass=0;strokeWidth=1;shadow=0;" parent="WIyWlLk6GJQsqaUBKTNV-1" vertex="1">
          <mxGeometry x="319" y="2200" width="120" height="40" as="geometry" />
        </mxCell>
        <mxCell id="ZI-vQJcTx0TfdvtGSrB0-163" value="res=res - a = -5" style="rounded=1;whiteSpace=wrap;html=1;fontSize=12;glass=0;strokeWidth=1;shadow=0;" parent="WIyWlLk6GJQsqaUBKTNV-1" vertex="1">
          <mxGeometry x="559" y="2200" width="120" height="40" as="geometry" />
        </mxCell>
        <mxCell id="ZI-vQJcTx0TfdvtGSrB0-164" value="&lt;font style=&quot;font-size: 25px;&quot;&gt;&lt;b&gt;-&lt;/b&gt;&lt;/font&gt;" style="text;html=1;align=center;verticalAlign=middle;resizable=0;points=[];autosize=1;strokeColor=none;fillColor=none;fontSize=16;fontFamily=Helvetica;fontColor=default;" parent="WIyWlLk6GJQsqaUBKTNV-1" vertex="1">
          <mxGeometry x="249" y="2180" width="30" height="40" as="geometry" />
        </mxCell>
        <mxCell id="ZI-vQJcTx0TfdvtGSrB0-165" value="&lt;font style=&quot;font-size: 25px;&quot;&gt;&lt;b&gt;=&lt;/b&gt;&lt;/font&gt;" style="text;html=1;align=center;verticalAlign=middle;resizable=0;points=[];autosize=1;strokeColor=none;fillColor=none;fontSize=16;fontFamily=Helvetica;fontColor=default;" parent="WIyWlLk6GJQsqaUBKTNV-1" vertex="1">
          <mxGeometry x="479" y="2180" width="40" height="40" as="geometry" />
        </mxCell>
      </root>
    </mxGraphModel>
  </diagram>
</mxfile>
